<?xml version="1.0" encoding="UTF-8"?>
<!DOCTYPE svg PUBLIC "-//W3C//DTD SVG 1.1//EN" "http://www.w3.org/Graphics/SVG/1.1/DTD/svg11.dtd">
<svg version="1.1" xmlns="http://www.w3.org/2000/svg" xmlns:xlink="http://www.w3.org/1999/xlink" x="0" y="0" width="378" height="403" viewBox="0, 0, 378, 403">
  <defs>
    <clipPath id="Clip_1">
      <path d="M375.773,4.21 L375.773,397.043 L2.226,397.043 L2.226,4.21 L375.773,4.21 z"/>
    </clipPath>
  </defs>
  <g id="Layer_1">
    <g clip-path="url(#Clip_1)">
      <path d="M263.772,316.149 L263.027,316.377 L263.027,314.972 C263.26,315.378 263.52,315.76 263.772,316.149 M223.467,333.404 C222.857,330.636 222.266,327.864 221.695,325.115 C222.346,324.658 223.034,324.194 223.755,323.725 L224.943,327.331 L224.943,339.667 C224.426,337.593 223.93,335.503 223.467,333.404 M126.806,293.66 L102.447,273.833 L102.448,273.833 L100.381,272.151 L97.749,270.008 C102.266,263.454 104.999,254.151 105.474,252.457 C110.442,256.284 114.794,258.223 115.257,263.872 C116.382,277.634 106.68,280.59 124.133,287.811 C126.249,288.686 127.988,289.526 129.443,290.341 C128.15,291.919 127.215,293.093 126.806,293.66 M280.996,84.072 C268.496,48.756 235.987,18.755 221.686,24.75 C198.756,7.943 171.032,10.967 145.342,24.861 C119.653,38.755 105.592,55.138 95.352,84.072 C86.727,108.437 85.782,141.764 85.885,157.719 C85.844,162.624 86.026,165.409 86.035,165.408 C86.07,166.417 86.097,169.454 86.097,169.454 C86.097,169.454 86.179,169.453 86.346,169.421 C86.133,181.626 89.931,194.089 89.931,207.71 C89.931,214.037 90.309,219.445 90.971,224.091 C89.405,225.834 88.011,227.71 86.85,229.621 C80.609,239.903 72.913,248.088 73.05,262.272 C73.074,264.81 72.548,265.114 73.702,268.583 C74.733,271.682 76.846,273.826 78.965,275.218 L81.073,277.397 C91.693,288.406 113.6,310.928 118.647,314.639 C126.262,320.24 132.522,317.343 137.113,313.145 C141.409,317.256 149.371,321.405 154.654,325.115 C154.083,327.864 153.492,330.636 152.882,333.404 C149.118,350.472 143.161,367.092 141.747,377.149 C141.628,377.69 141.509,378.233 141.39,378.778 C141.339,379.017 141.286,379.257 141.234,379.497 C141.163,379.824 141.092,380.15 141.021,380.477 C140.964,380.747 140.905,381.014 140.847,381.284 L140.633,382.283 C140.581,382.529 140.529,382.774 140.476,383.02 C140.364,383.554 140.251,384.089 140.14,384.623 C140.088,384.874 140.037,385.123 139.985,385.374 C139.92,385.692 139.854,386.009 139.79,386.328 C139.731,386.61 139.675,386.893 139.618,387.175 C139.559,387.467 139.502,387.758 139.444,388.049 C139.387,388.338 139.33,388.626 139.274,388.914 C139.215,389.218 139.157,389.522 139.098,389.826 C139.01,390.289 138.924,390.749 138.839,391.209 C138.782,391.517 138.724,391.825 138.669,392.132 C138.616,392.422 138.565,392.71 138.514,392.998 C138.467,393.267 138.421,393.537 138.374,393.805 C138.324,394.096 138.274,394.386 138.226,394.676 C138.182,394.942 138.139,395.206 138.096,395.469 C138.05,395.757 138.003,396.047 137.958,396.333 C137.883,396.815 137.81,397.294 137.741,397.768 C137.7,398.049 137.663,398.325 137.624,398.603 C137.589,398.853 137.554,399.104 137.521,399.352 C137.483,399.637 137.448,399.921 137.413,400.204 C137.383,400.44 137.354,400.674 137.327,400.909 C137.294,401.192 137.26,401.473 137.23,401.753 C137.205,401.985 137.182,402.215 137.159,402.445 C137.11,402.926 137.066,403.401 137.027,403.87 C137.008,404.097 136.988,404.327 136.971,404.551 C136.952,404.817 136.936,405.077 136.92,405.339 C136.906,405.551 136.893,405.764 136.883,405.975 C136.869,406.235 136.857,406.493 136.847,406.748 C136.84,406.953 136.834,407.154 136.829,407.356 C136.821,407.608 136.813,407.861 136.811,408.108 C136.808,408.331 136.81,408.548 136.811,408.766 C136.812,409.167 136.819,409.559 136.832,409.945 C136.838,410.134 136.843,410.324 136.852,410.509 C136.864,410.735 136.878,410.957 136.893,411.176 C136.906,411.356 136.921,411.533 136.936,411.709 C136.955,411.923 136.974,412.137 136.998,412.346 C137.018,412.521 137.043,412.69 137.065,412.862 C137.112,413.202 137.165,413.533 137.224,413.854 C137.257,414.028 137.287,414.204 137.323,414.371 C137.362,414.55 137.407,414.723 137.45,414.896 C137.489,415.049 137.528,415.2 137.571,415.348 C137.618,415.514 137.669,415.678 137.721,415.84 C137.769,415.984 137.821,416.124 137.873,416.262 C137.928,416.412 137.983,416.563 138.044,416.706 C138.135,416.922 138.235,417.127 138.338,417.326 C138.354,417.356 138.367,417.391 138.383,417.422 C138.324,418.952 139.449,419.974 141.475,420.37 C141.476,420.432 141.476,420.495 141.477,420.557 C141.882,442.836 145.371,537.031 146.002,553.96 L148.591,641.528 C144.613,642.523 140.711,644.359 138.17,647.671 C136.444,649.921 135.571,651.7 135.181,653.098 C135.18,653.099 135.175,653.102 135.175,653.102 C132.181,658.534 134.465,660.791 134.465,660.791 L163.34,660.541 L163.34,640.699 C163.34,640.699 163.328,640.698 163.325,640.697 L170.489,547.664 L180.306,444.996 L196.043,444.996 L207.857,556.581 L214.335,640.697 C214.332,640.698 214.32,640.699 214.32,640.699 L214.32,660.541 L243.195,660.791 C243.195,660.791 245.478,658.534 242.484,653.102 C242.484,653.102 242.479,653.099 242.478,653.098 C242.089,651.7 241.216,649.921 239.49,647.671 C236.948,644.358 233.046,642.522 229.066,641.528 L235.527,423.15 L234.81,423.727 C234.835,422.557 234.855,421.487 234.872,420.557 C234.873,420.495 234.873,420.432 234.874,420.37 C236.9,419.974 238.025,418.952 237.966,417.422 C237.982,417.391 237.995,417.356 238.011,417.326 C238.114,417.127 238.214,416.922 238.305,416.706 C238.366,416.563 238.421,416.412 238.476,416.262 C238.528,416.124 238.58,415.984 238.628,415.84 C238.68,415.678 238.731,415.514 238.778,415.348 C238.821,415.2 238.86,415.049 238.899,414.896 C238.942,414.723 238.987,414.55 239.026,414.371 C239.062,414.204 239.092,414.028 239.125,413.854 C239.184,413.533 239.237,413.202 239.284,412.862 C239.306,412.69 239.331,412.521 239.351,412.346 C239.375,412.137 239.394,411.923 239.413,411.709 C239.428,411.533 239.443,411.356 239.456,411.176 C239.471,410.957 239.485,410.735 239.497,410.509 C239.506,410.324 239.511,410.134 239.517,409.945 C239.53,409.559 239.537,409.167 239.538,408.766 C239.539,408.548 239.541,408.331 239.538,408.108 C239.536,407.861 239.528,407.608 239.52,407.356 C239.515,407.154 239.509,406.953 239.502,406.748 C239.492,406.493 239.48,406.235 239.466,405.975 C239.456,405.764 239.443,405.551 239.429,405.339 C239.413,405.077 239.397,404.817 239.378,404.551 C239.361,404.327 239.341,404.097 239.322,403.87 C239.283,403.401 239.239,402.926 239.19,402.445 C239.167,402.215 239.144,401.985 239.119,401.753 C239.089,401.473 239.055,401.192 239.022,400.909 C238.995,400.674 238.966,400.44 238.936,400.204 C238.901,399.921 238.866,399.636 238.828,399.35 C238.796,399.107 238.761,398.862 238.727,398.616 C238.676,398.251 238.625,397.883 238.57,397.514 C238.512,397.122 238.454,396.73 238.391,396.334 C238.346,396.048 238.3,395.758 238.253,395.469 C238.21,395.206 238.167,394.942 238.123,394.676 C238.075,394.386 238.025,394.096 237.975,393.805 C237.928,393.537 237.882,393.267 237.835,392.998 C237.784,392.71 237.733,392.422 237.68,392.132 C237.625,391.825 237.567,391.517 237.51,391.209 C237.425,390.749 237.339,390.289 237.251,389.826 C237.192,389.522 237.134,389.218 237.075,388.914 C237.019,388.626 236.962,388.338 236.905,388.049 C236.847,387.758 236.79,387.467 236.731,387.175 C236.675,386.893 236.618,386.61 236.559,386.328 C236.495,386.009 236.429,385.692 236.364,385.374 C236.312,385.123 236.261,384.874 236.209,384.623 C236.098,384.089 235.985,383.554 235.873,383.02 C235.82,382.774 235.768,382.529 235.716,382.283 L235.502,381.284 C235.444,381.014 235.385,380.747 235.328,380.477 C235.257,380.15 235.186,379.824 235.115,379.497 C235.063,379.257 235.01,379.017 234.959,378.778 C234.84,378.233 234.721,377.69 234.602,377.149 C233.729,370.943 231.126,362.233 228.376,352.465 C229.479,353.809 230.688,354.561 231.751,354.561 C234.616,354.561 235.926,351.259 235.926,351.259 L238.077,351.38 C238.077,351.38 238.313,353.289 238.792,354.483 C239.27,355.676 240.822,357.109 242.134,357.109 L245.835,357.109 C247.148,357.109 248.7,355.676 249.178,354.483 C249.656,353.289 249.893,351.38 249.893,351.38 L252.044,351.259 C252.044,351.259 253.353,354.561 256.219,354.561 C259.083,354.561 263.027,349.11 263.027,341.232 L263.027,333.938 L270.415,330.737 C275.141,330.741 288.322,328.828 289.898,307.579 C291.821,281.63 273.888,271.725 264.832,276.588 C264.204,276.924 263.609,277.452 263.054,278.135 L263.054,269.019 C263.054,269.227 263.004,269.423 262.928,269.612 C262.688,267.446 261.992,265.5 261.11,263.708 C262.419,250.18 286.417,258.167 286.417,207.71 C286.417,193.234 290.705,180.067 289.908,167.128 C290.133,167.042 290.251,166.966 290.251,166.966 C290.251,166.966 292.73,117.223 280.996,84.072" fill="#797979"/>
      <path d="M263.772,316.149 L263.027,316.377 L263.027,314.972 C263.26,315.378 263.52,315.76 263.772,316.149 z M223.467,333.404 C222.857,330.636 222.266,327.864 221.695,325.115 C222.346,324.658 223.034,324.194 223.755,323.725 L224.943,327.331 L224.943,339.667 C224.426,337.593 223.93,335.503 223.467,333.404 z M126.806,293.66 L102.447,273.833 L102.448,273.833 L100.381,272.151 L97.749,270.008 C102.266,263.454 104.999,254.151 105.474,252.457 C110.442,256.284 114.794,258.223 115.257,263.872 C116.382,277.634 106.68,280.59 124.133,287.811 C126.249,288.686 127.988,289.526 129.443,290.341 C128.15,291.919 127.215,293.093 126.806,293.66 z M280.996,84.072 C268.496,48.756 235.987,18.755 221.686,24.75 C198.756,7.943 171.032,10.967 145.342,24.861 C119.653,38.755 105.592,55.138 95.352,84.072 C86.727,108.437 85.782,141.764 85.885,157.719 C85.844,162.624 86.026,165.409 86.035,165.408 C86.07,166.417 86.097,169.454 86.097,169.454 C86.097,169.454 86.179,169.453 86.346,169.421 C86.133,181.626 89.931,194.089 89.931,207.71 C89.931,214.037 90.309,219.445 90.971,224.091 C89.405,225.834 88.011,227.71 86.85,229.621 C80.609,239.903 72.913,248.088 73.05,262.272 C73.074,264.81 72.548,265.114 73.702,268.583 C74.733,271.682 76.846,273.826 78.965,275.218 L81.073,277.397 C91.693,288.406 113.6,310.928 118.647,314.639 C126.262,320.24 132.522,317.343 137.113,313.145 C141.409,317.256 149.371,321.405 154.654,325.115 C154.083,327.864 153.492,330.636 152.882,333.404 C149.118,350.472 143.161,367.092 141.747,377.149 C141.628,377.69 141.509,378.233 141.39,378.778 C141.339,379.017 141.286,379.257 141.234,379.497 C141.163,379.824 141.092,380.15 141.021,380.477 C140.964,380.747 140.905,381.014 140.847,381.284 L140.633,382.283 C140.581,382.529 140.529,382.774 140.476,383.02 C140.364,383.554 140.251,384.089 140.14,384.623 C140.088,384.874 140.037,385.123 139.985,385.374 C139.92,385.692 139.854,386.009 139.79,386.328 C139.731,386.61 139.675,386.893 139.618,387.175 C139.559,387.467 139.502,387.758 139.444,388.049 C139.387,388.338 139.33,388.626 139.274,388.914 C139.215,389.218 139.157,389.522 139.098,389.826 C139.01,390.289 138.924,390.749 138.839,391.209 C138.782,391.517 138.724,391.825 138.669,392.132 C138.616,392.422 138.565,392.71 138.514,392.998 C138.467,393.267 138.421,393.537 138.374,393.805 C138.324,394.096 138.274,394.386 138.226,394.676 C138.182,394.942 138.139,395.206 138.096,395.469 C138.05,395.757 138.003,396.047 137.958,396.333 C137.883,396.815 137.81,397.294 137.741,397.768 C137.7,398.049 137.663,398.325 137.624,398.603 C137.589,398.853 137.554,399.104 137.521,399.352 C137.483,399.637 137.448,399.921 137.413,400.204 C137.383,400.44 137.354,400.674 137.327,400.909 C137.294,401.192 137.26,401.473 137.23,401.753 C137.205,401.985 137.182,402.215 137.159,402.445 C137.11,402.926 137.066,403.401 137.027,403.87 C137.008,404.097 136.988,404.327 136.971,404.551 C136.952,404.817 136.936,405.077 136.92,405.339 C136.906,405.551 136.893,405.764 136.883,405.975 C136.869,406.235 136.857,406.493 136.847,406.748 C136.84,406.953 136.834,407.154 136.829,407.356 C136.821,407.608 136.813,407.861 136.811,408.108 C136.808,408.331 136.81,408.548 136.811,408.766 C136.812,409.167 136.819,409.559 136.832,409.945 C136.838,410.134 136.843,410.324 136.852,410.509 C136.864,410.735 136.878,410.957 136.893,411.176 C136.906,411.356 136.921,411.533 136.936,411.709 C136.955,411.923 136.974,412.137 136.998,412.346 C137.018,412.521 137.043,412.69 137.065,412.862 C137.112,413.202 137.165,413.533 137.224,413.854 C137.257,414.028 137.287,414.204 137.323,414.371 C137.362,414.55 137.407,414.723 137.45,414.896 C137.489,415.049 137.528,415.2 137.571,415.348 C137.618,415.514 137.669,415.678 137.721,415.84 C137.769,415.984 137.821,416.124 137.873,416.262 C137.928,416.412 137.983,416.563 138.044,416.706 C138.135,416.922 138.235,417.127 138.338,417.326 C138.354,417.356 138.367,417.391 138.383,417.422 C138.324,418.952 139.449,419.974 141.475,420.37 C141.476,420.432 141.476,420.495 141.477,420.557 C141.882,442.836 145.371,537.031 146.002,553.96 L148.591,641.528 C144.613,642.523 140.711,644.359 138.17,647.671 C136.444,649.921 135.571,651.7 135.181,653.098 C135.18,653.099 135.175,653.102 135.175,653.102 C132.181,658.534 134.465,660.791 134.465,660.791 L163.34,660.541 L163.34,640.699 C163.34,640.699 163.328,640.698 163.325,640.697 L170.489,547.664 L180.306,444.996 L196.043,444.996 L207.857,556.581 L214.335,640.697 C214.332,640.698 214.32,640.699 214.32,640.699 L214.32,660.541 L243.195,660.791 C243.195,660.791 245.478,658.534 242.484,653.102 C242.484,653.102 242.479,653.099 242.478,653.098 C242.089,651.7 241.216,649.921 239.49,647.671 C236.948,644.358 233.046,642.522 229.066,641.528 L235.527,423.15 L234.81,423.727 C234.835,422.557 234.855,421.487 234.872,420.557 C234.873,420.495 234.873,420.432 234.874,420.37 C236.9,419.974 238.025,418.952 237.966,417.422 C237.982,417.391 237.995,417.356 238.011,417.326 C238.114,417.127 238.214,416.922 238.305,416.706 C238.366,416.563 238.421,416.412 238.476,416.262 C238.528,416.124 238.58,415.984 238.628,415.84 C238.68,415.678 238.731,415.514 238.778,415.348 C238.821,415.2 238.86,415.049 238.899,414.896 C238.942,414.723 238.987,414.55 239.026,414.371 C239.062,414.204 239.092,414.028 239.125,413.854 C239.184,413.533 239.237,413.202 239.284,412.862 C239.306,412.69 239.331,412.521 239.351,412.346 C239.375,412.137 239.394,411.923 239.413,411.709 C239.428,411.533 239.443,411.356 239.456,411.176 C239.471,410.957 239.485,410.735 239.497,410.509 C239.506,410.324 239.511,410.134 239.517,409.945 C239.53,409.559 239.537,409.167 239.538,408.766 C239.539,408.548 239.541,408.331 239.538,408.108 C239.536,407.861 239.528,407.608 239.52,407.356 C239.515,407.154 239.509,406.953 239.502,406.748 C239.492,406.493 239.48,406.235 239.466,405.975 C239.456,405.764 239.443,405.551 239.429,405.339 C239.413,405.077 239.397,404.817 239.378,404.551 C239.361,404.327 239.341,404.097 239.322,403.87 C239.283,403.401 239.239,402.926 239.19,402.445 C239.167,402.215 239.144,401.985 239.119,401.753 C239.089,401.473 239.055,401.192 239.022,400.909 C238.995,400.674 238.966,400.44 238.936,400.204 C238.901,399.921 238.866,399.636 238.828,399.35 C238.796,399.107 238.761,398.862 238.727,398.616 C238.676,398.251 238.625,397.883 238.57,397.514 C238.512,397.122 238.454,396.73 238.391,396.334 C238.346,396.048 238.3,395.758 238.253,395.469 C238.21,395.206 238.167,394.942 238.123,394.676 C238.075,394.386 238.025,394.096 237.975,393.805 C237.928,393.537 237.882,393.267 237.835,392.998 C237.784,392.71 237.733,392.422 237.68,392.132 C237.625,391.825 237.567,391.517 237.51,391.209 C237.425,390.749 237.339,390.289 237.251,389.826 C237.192,389.522 237.134,389.218 237.075,388.914 C237.019,388.626 236.962,388.338 236.905,388.049 C236.847,387.758 236.79,387.467 236.731,387.175 C236.675,386.893 236.618,386.61 236.559,386.328 C236.495,386.009 236.429,385.692 236.364,385.374 C236.312,385.123 236.261,384.874 236.209,384.623 C236.098,384.089 235.985,383.554 235.873,383.02 C235.82,382.774 235.768,382.529 235.716,382.283 L235.502,381.284 C235.444,381.014 235.385,380.747 235.328,380.477 C235.257,380.15 235.186,379.824 235.115,379.497 C235.063,379.257 235.01,379.017 234.959,378.778 C234.84,378.233 234.721,377.69 234.602,377.149 C233.729,370.943 231.126,362.233 228.376,352.465 C229.479,353.809 230.688,354.561 231.751,354.561 C234.616,354.561 235.926,351.259 235.926,351.259 L238.077,351.38 C238.077,351.38 238.313,353.289 238.792,354.483 C239.27,355.676 240.822,357.109 242.134,357.109 L245.835,357.109 C247.148,357.109 248.7,355.676 249.178,354.483 C249.656,353.289 249.893,351.38 249.893,351.38 L252.044,351.259 C252.044,351.259 253.353,354.561 256.219,354.561 C259.083,354.561 263.027,349.11 263.027,341.232 L263.027,333.938 L270.415,330.737 C275.141,330.741 288.322,328.828 289.898,307.579 C291.821,281.63 273.888,271.725 264.832,276.588 C264.204,276.924 263.609,277.452 263.054,278.135 L263.054,269.019 C263.054,269.227 263.004,269.423 262.928,269.612 C262.688,267.446 261.992,265.5 261.11,263.708 C262.419,250.18 286.417,258.167 286.417,207.71 C286.417,193.234 290.705,180.067 289.908,167.128 C290.133,167.042 290.251,166.966 290.251,166.966 C290.251,166.966 292.73,117.223 280.996,84.072 z" fill-opacity="0" stroke="#797979" stroke-width="8" stroke-linecap="round" stroke-linejoin="round"/>
      <path d="M286.417,207.71 C286.417,191.833 291.596,177.529 289.542,163.373 C286.073,146.344 273.995,130.131 265.426,118.482 C250.91,97.189 227.778,85.347 188.675,85.148 L188.675,85.138 C188.506,85.138 188.342,85.142 188.175,85.143 C188.007,85.142 187.843,85.138 187.675,85.138 L187.675,85.148 C148.571,85.347 125.439,97.189 110.923,118.482 C102.354,130.131 90.276,146.344 86.807,163.373 C84.753,177.529 89.931,191.833 89.931,207.71 C89.931,258.373 114.13,250.111 115.257,263.872 C116.382,277.634 106.68,280.59 124.133,287.811 C144.178,296.103 132.156,301.4 134.266,309.045 C136.563,317.359 163.641,326.538 159.452,332.338 C156.175,336.874 179.226,343.677 187.675,344.086 L187.675,344.106 C187.822,344.11 188,344.106 188.175,344.103 C188.349,344.106 188.527,344.11 188.675,344.106 L188.675,344.086 C197.123,343.677 220.175,336.874 216.897,332.338 C212.708,326.538 239.786,317.359 242.083,309.045 C244.193,301.4 232.171,296.103 252.216,287.811 C269.669,280.59 259.967,277.634 261.092,263.872 C262.219,250.111 286.417,258.373 286.417,207.71" fill="#AE9684"/>
      <path d="M286.417,207.71 C286.417,191.833 291.596,177.529 289.542,163.373 C286.073,146.344 273.995,130.131 265.426,118.482 C250.91,97.189 227.778,85.347 188.675,85.148 L188.675,85.138 C188.506,85.138 188.342,85.142 188.175,85.143 C188.007,85.142 187.843,85.138 187.675,85.138 L187.675,85.148 C148.571,85.347 125.439,97.189 110.923,118.482 C102.354,130.131 90.276,146.344 86.807,163.373 C84.753,177.529 89.931,191.833 89.931,207.71 C89.931,258.373 114.13,250.111 115.257,263.872 C116.382,277.634 106.68,280.59 124.133,287.811 C144.178,296.103 132.156,301.4 134.266,309.045 C136.563,317.359 163.641,326.538 159.452,332.338 C156.175,336.874 179.226,343.677 187.675,344.086 L187.675,344.106 C187.822,344.11 188,344.106 188.175,344.103 C188.349,344.106 188.527,344.11 188.675,344.106 L188.675,344.086 C197.123,343.677 220.175,336.874 216.897,332.338 C212.708,326.538 239.786,317.359 242.083,309.045 C244.193,301.4 232.171,296.103 252.216,287.811 C269.669,280.59 259.967,277.634 261.092,263.872 C262.219,250.111 286.417,258.373 286.417,207.71 z" fill-opacity="0" stroke="#797979" stroke-width="4" stroke-linecap="round" stroke-linejoin="round"/>
      <path d="M223.046,252.534 C219.17,250.432 208.898,249.642 200.508,249.355 L196.065,246.786 L194.704,232.406 L188.214,228.186 L181.723,232.406 L180.362,246.786 L175.918,249.356 C167.53,249.643 157.266,250.433 153.392,252.534 C153.05,252.72 151.971,255.02 151.971,255.02 C151.907,261.727 163.102,286.221 163.102,286.221 L213.337,286.221 C213.337,286.221 224.531,261.727 224.467,255.02 C224.467,255.02 223.389,252.72 223.046,252.534" fill="#FFEFD9"/>
      <path d="M223.046,252.534 C219.17,250.432 208.898,249.642 200.508,249.355 L196.065,246.786 L194.704,232.406 L188.214,228.186 L181.723,232.406 L180.362,246.786 L175.918,249.356 C167.53,249.643 157.266,250.433 153.392,252.534 C153.05,252.72 151.971,255.02 151.971,255.02 C151.907,261.727 163.102,286.221 163.102,286.221 L213.337,286.221 C213.337,286.221 224.531,261.727 224.467,255.02 C224.467,255.02 223.389,252.72 223.046,252.534 z" fill-opacity="0" stroke="#797979" stroke-width="4" stroke-linecap="round" stroke-linejoin="round"/>
      <path d="M214.65,255.217 C211.018,252.952 204.644,250.012 198.705,248.343 L196.011,246.786 L194.65,232.406 L188.16,228.186 L181.67,232.406 L180.308,246.786 L177.585,248.361 C171.662,250.032 165.319,252.959 161.699,255.217 C156.323,258.571 156.466,259.846 156.466,259.846 C156.401,266.553 161.568,284.055 161.568,284.055 L214.781,284.055 C214.781,284.055 219.948,266.553 219.883,259.846 C219.883,259.846 220.026,258.571 214.65,255.217" fill="#FFEFD9"/>
      <path d="M214.65,255.217 C211.018,252.952 204.644,250.012 198.705,248.343 L196.011,246.786 L194.65,232.406 L188.16,228.186 L181.67,232.406 L180.308,246.786 L177.585,248.361 C171.662,250.032 165.319,252.959 161.699,255.217 C156.323,258.571 156.466,259.846 156.466,259.846 C156.401,266.553 161.568,284.055 161.568,284.055 L214.781,284.055 C214.781,284.055 219.948,266.553 219.883,259.846 C219.883,259.846 220.026,258.571 214.65,255.217 z" fill-opacity="0" stroke="#797979" stroke-width="4" stroke-linecap="round" stroke-linejoin="round"/>
      <path d="M188.175,301.865 C198.341,301.876 208.52,277.779 208.219,270.362 C208.219,270.362 202.3,276.232 188.175,276.232 C174.049,276.232 168.217,270.362 168.217,270.362 C167.917,277.757 178.038,301.854 188.175,301.865" fill="#FFFFFF"/>
      <path d="M188.175,301.865 C198.341,301.876 208.52,277.779 208.219,270.362 C208.219,270.362 202.3,276.232 188.175,276.232 C174.049,276.232 168.217,270.362 168.217,270.362 C167.917,277.757 178.038,301.854 188.175,301.865 z" fill-opacity="0" stroke="#797979" stroke-width="4" stroke-linecap="round" stroke-linejoin="round"/>
      <path d="M162.117,311.237 L214.321,311.237 L216.178,278.435 L218.76,250.255 L212.901,250.278 L188.219,298.984 L163.536,250.278 L157.677,250.255 L160.26,278.435 z" fill="#E2F1C9"/>
      <path d="M162.117,311.237 L214.321,311.237 L216.178,278.435 L218.76,250.255 L212.901,250.278 L188.219,298.984 L163.536,250.278 L157.677,250.255 L160.26,278.435 L162.117,311.237 z" fill-opacity="0" stroke="#797979" stroke-width="4" stroke-linecap="round" stroke-linejoin="round"/>
      <path d="M161.699,255.217 C158.026,256.238 129.679,289.674 126.806,293.66 L91.555,264.967 L75.258,271.347 C75.258,271.347 111.923,309.694 118.647,314.639 C131.359,323.988 140.3,309.665 143.993,305.123 C145.374,303.424 161.718,284.933 164.859,281.071" fill="#FFEFD9"/>
      <path d="M161.699,255.217 C158.026,256.238 129.679,289.674 126.806,293.66 L91.555,264.967 L75.258,271.347 C75.258,271.347 111.923,309.694 118.647,314.639 C131.359,323.988 140.3,309.665 143.993,305.123 C145.374,303.424 161.718,284.933 164.859,281.071" fill-opacity="0" stroke="#797979" stroke-width="4" stroke-linecap="round" stroke-linejoin="round"/>
      <path d="M240.87,343.541 L233.601,325.368 L265.323,315.675 L279.195,326.931 z" fill="#FFEFD9"/>
      <path d="M240.87,343.541 L233.601,325.368 L265.323,315.675 L279.195,326.931 L240.87,343.541 z" fill-opacity="0" stroke="#797979" stroke-width="4" stroke-linecap="round" stroke-linejoin="round"/>
      <path d="M209.547,280.6 L226.085,330.796 C226.085,330.796 228.209,338.441 236.554,338.441 C240.342,338.441 246.271,331.441 246.271,331.441 C240.83,311.073 223.043,259.478 217.776,256.553 L216.627,256.036" fill="#FFEFD9"/>
      <path d="M209.547,280.6 L226.085,330.796 C226.085,330.796 228.209,338.441 236.554,338.441 C240.342,338.441 246.271,331.441 246.271,331.441 C240.83,311.073 223.043,259.478 217.776,256.553 L216.627,256.036" fill-opacity="0" stroke="#797979" stroke-width="4" stroke-linecap="round" stroke-linejoin="round"/>
      <path d="M212.901,250.278 C212.901,250.278 224.36,249.809 227.237,254.737 C234.362,266.94 245.941,280.638 245.941,280.638 L216.373,303.737 L210.42,281.27" fill="#E2F1C9"/>
      <path d="M212.901,250.278 C212.901,250.278 224.36,249.809 227.237,254.737 C234.362,266.94 245.941,280.638 245.941,280.638 L216.373,303.737 L210.42,281.27" fill-opacity="0" stroke="#797979" stroke-width="4" stroke-linecap="round" stroke-linejoin="round"/>
      <path d="M163.448,250.278 C163.448,250.278 151.989,249.809 149.112,254.737 C141.987,266.94 130.408,280.638 130.408,280.638 L159.976,303.737 L165.929,281.27" fill="#E2F1C9"/>
      <path d="M163.448,250.278 C163.448,250.278 151.989,249.809 149.112,254.737 C141.987,266.94 130.408,280.638 130.408,280.638 L159.976,303.737 L165.929,281.27" fill-opacity="0" stroke="#797979" stroke-width="4" stroke-linecap="round" stroke-linejoin="round"/>
      <path d="M230.381,378.975 L188.175,378.237 L145.968,378.975 C145.968,378.975 141.03,396.053 141.477,420.557 C141.923,445.061 146.099,556.581 146.099,556.581 L169.636,556.581 L180.306,444.996 L196.043,444.996 L207.857,556.581 L231.575,556.581 C231.575,556.581 234.426,445.061 234.872,420.557 C235.319,396.053 230.381,378.975 230.381,378.975" fill="#797979"/>
      <path d="M230.381,378.975 L188.175,378.237 L145.968,378.975 C145.968,378.975 141.03,396.053 141.477,420.557 C141.923,445.061 146.099,556.581 146.099,556.581 L169.636,556.581 L180.306,444.996 L196.043,444.996 L207.857,556.581 L231.575,556.581 C231.575,556.581 234.426,445.061 234.872,420.557 C235.319,396.053 230.381,378.975 230.381,378.975 z" fill-opacity="0" stroke="#797979" stroke-width="4" stroke-linecap="round" stroke-linejoin="round"/>
      <path d="M234.602,377.149 C233.188,367.092 227.231,350.472 223.467,333.404 C217.469,306.212 213.255,278.435 213.255,278.435 L202.614,278.435 L188.175,304.736 L173.735,278.435 L163.094,278.435 C163.094,278.435 158.88,306.212 152.882,333.404 C149.118,350.472 143.161,367.092 141.747,377.149 C138.308,392.823 134.635,410.405 138.383,417.421 C138.305,419.415 140.222,420.557 143.549,420.557 L232.8,420.557 C236.127,420.557 238.044,419.415 237.966,417.421 C241.714,410.405 238.041,392.823 234.602,377.149" fill="#E2F1C9"/>
      <path d="M163.094,278.435 C163.094,278.435 158.88,306.212 152.882,333.404 C149.118,350.472 143.161,367.092 141.747,377.149 C137.331,397.276 132.525,420.557 143.549,420.557 L158.049,420.557 L223.799,420.557 L232.8,420.557 C243.824,420.557 239.018,397.276 234.602,377.149 C233.188,367.092 227.231,350.472 223.467,333.404 C217.469,306.212 213.255,278.435 213.255,278.435" fill-opacity="0" stroke="#797979" stroke-width="4" stroke-linecap="round" stroke-linejoin="round"/>
      <path d="M170.888,249.712 C170.888,249.712 162.697,346.112 187.03,354.487" fill-opacity="0" stroke="#797979" stroke-width="4" stroke-linecap="round" stroke-linejoin="round"/>
      <path d="M179.712,338.369 C179.712,340.699 177.823,342.588 175.493,342.588 C173.163,342.588 171.274,340.699 171.274,338.369 C171.274,336.039 173.163,334.15 175.493,334.15 C177.823,334.15 179.712,336.039 179.712,338.369" fill="#FFFFFF"/>
      <path d="M179.712,338.369 C179.712,340.699 177.823,342.588 175.493,342.588 C173.163,342.588 171.274,340.699 171.274,338.369 C171.274,336.039 173.163,334.15 175.493,334.15 C177.823,334.15 179.712,336.039 179.712,338.369 z" fill-opacity="0" stroke="#797979" stroke-width="4" stroke-linecap="round" stroke-linejoin="round"/>
      <path d="M174.61,316.632 C174.61,318.962 172.722,320.85 170.392,320.85 C168.061,320.85 166.174,318.962 166.174,316.632 C166.174,314.301 168.061,312.413 170.392,312.413 C172.722,312.413 174.61,314.301 174.61,316.632" fill="#FFFFFF"/>
      <path d="M174.61,316.632 C174.61,318.962 172.722,320.85 170.392,320.85 C168.061,320.85 166.174,318.962 166.174,316.632 C166.174,314.301 168.061,312.413 170.392,312.413 C172.722,312.413 174.61,314.301 174.61,316.632 z" fill-opacity="0" stroke="#797979" stroke-width="4" stroke-linecap="round" stroke-linejoin="round"/>
      <path d="M173.829,295.286 C173.829,297.616 171.94,299.505 169.61,299.505 C167.28,299.505 165.391,297.616 165.391,295.286 C165.391,292.956 167.28,291.067 169.61,291.067 C171.94,291.067 173.829,292.956 173.829,295.286" fill="#FFFFFF"/>
      <path d="M173.829,295.286 C173.829,297.616 171.94,299.505 169.61,299.505 C167.28,299.505 165.391,297.616 165.391,295.286 C165.391,292.956 167.28,291.067 169.61,291.067 C171.94,291.067 173.829,292.956 173.829,295.286 z" fill-opacity="0" stroke="#797979" stroke-width="4" stroke-linecap="round" stroke-linejoin="round"/>
      <path d="M205.461,249.712 C205.461,249.712 213.652,346.112 189.319,354.487" fill-opacity="0" stroke="#797979" stroke-width="4" stroke-linecap="round" stroke-linejoin="round"/>
      <path d="M196.051,338.369 C196.051,340.699 197.94,342.588 200.27,342.588 C202.6,342.588 204.489,340.699 204.489,338.369 C204.489,336.039 202.6,334.15 200.27,334.15 C197.94,334.15 196.051,336.039 196.051,338.369" fill="#FFFFFF"/>
      <path d="M196.051,338.369 C196.051,340.699 197.94,342.588 200.27,342.588 C202.6,342.588 204.489,340.699 204.489,338.369 C204.489,336.039 202.6,334.15 200.27,334.15 C197.94,334.15 196.051,336.039 196.051,338.369 z" fill-opacity="0" stroke="#797979" stroke-width="4" stroke-linecap="round" stroke-linejoin="round"/>
      <path d="M201.153,316.632 C201.153,318.962 203.041,320.85 205.371,320.85 C207.702,320.85 209.59,318.962 209.59,316.632 C209.59,314.301 207.702,312.413 205.371,312.413 C203.041,312.413 201.153,314.301 201.153,316.632" fill="#FFFFFF"/>
      <path d="M201.153,316.632 C201.153,318.962 203.041,320.85 205.371,320.85 C207.702,320.85 209.59,318.962 209.59,316.632 C209.59,314.301 207.702,312.413 205.371,312.413 C203.041,312.413 201.153,314.301 201.153,316.632 z" fill-opacity="0" stroke="#797979" stroke-width="4" stroke-linecap="round" stroke-linejoin="round"/>
      <path d="M201.934,295.286 C201.934,297.616 203.823,299.505 206.153,299.505 C208.483,299.505 210.372,297.616 210.372,295.286 C210.372,292.956 208.483,291.067 206.153,291.067 C203.823,291.067 201.934,292.956 201.934,295.286" fill="#FFFFFF"/>
      <path d="M201.934,295.286 C201.934,297.616 203.823,299.505 206.153,299.505 C208.483,299.505 210.372,297.616 210.372,295.286 C210.372,292.956 208.483,291.067 206.153,291.067 C203.823,291.067 201.934,292.956 201.934,295.286 z" fill-opacity="0" stroke="#797979" stroke-width="4" stroke-linecap="round" stroke-linejoin="round"/>
      <path d="M192.1,353.921 C192.1,356.251 190.212,358.139 187.882,358.139 C185.551,358.139 183.663,356.251 183.663,353.921 C183.663,351.591 185.551,349.702 187.882,349.702 C190.212,349.702 192.1,351.591 192.1,353.921" fill="#FFFFFF"/>
      <path d="M192.1,353.921 C192.1,356.251 190.212,358.139 187.882,358.139 C185.551,358.139 183.663,356.251 183.663,353.921 C183.663,351.591 185.551,349.702 187.882,349.702 C190.212,349.702 192.1,351.591 192.1,353.921 z" fill-opacity="0" stroke="#797979" stroke-width="4" stroke-linecap="round" stroke-linejoin="round"/>
      <path d="M117.064,145.705 C117.064,145.705 88.923,139.896 88.923,165.341 C88.923,180.307 98.61,187.103 118.528,187.388" fill="#FFEFD9"/>
      <path d="M117.064,145.705 C117.064,145.705 88.923,139.896 88.923,165.341 C88.923,180.307 98.61,187.103 118.528,187.388" fill-opacity="0" stroke="#797979" stroke-width="4" stroke-linecap="round" stroke-linejoin="round"/>
      <path d="M99.646,166.717 C99.646,166.717 103.335,165.013 106.85,165.035" fill="#FFEFD9"/>
      <path d="M99.646,166.717 C99.646,166.717 103.335,165.013 106.85,165.035" fill-opacity="0" stroke="#797979" stroke-width="4" stroke-linecap="round" stroke-linejoin="round"/>
      <path d="M259.284,145.705 C259.284,145.705 287.426,139.896 287.426,165.341 C287.426,180.307 277.737,187.103 257.819,187.388" fill="#FFEFD9"/>
      <path d="M259.284,145.705 C259.284,145.705 287.426,139.896 287.426,165.341 C287.426,180.307 277.737,187.103 257.819,187.388" fill-opacity="0" stroke="#797979" stroke-width="4" stroke-linecap="round" stroke-linejoin="round"/>
      <path d="M276.702,166.717 C276.702,166.717 273.012,165.013 269.497,165.035" fill="#FFEFD9"/>
      <path d="M276.702,166.717 C276.702,166.717 273.012,165.013 269.497,165.035" fill-opacity="0" stroke="#797979" stroke-width="4" stroke-linecap="round" stroke-linejoin="round"/>
      <path d="M188.174,242.258 C67.414,242.258 79.097,45.311 188.174,45.311 C297.251,45.311 308.934,242.258 188.174,242.258" fill="#FFEFD9"/>
      <path d="M188.174,242.258 C67.414,242.258 79.097,45.311 188.174,45.311 C297.251,45.311 308.934,242.258 188.174,242.258 z" fill-opacity="0" stroke="#797979" stroke-width="4" stroke-linecap="round" stroke-linejoin="round"/>
      <path d="M280.996,84.072 C268.496,48.756 235.987,18.755 221.686,24.75 C198.756,7.943 171.032,10.967 145.342,24.861 C119.653,38.755 105.592,55.138 95.352,84.072 C86.727,108.437 85.782,141.764 85.885,157.719 C85.844,162.624 86.026,165.409 86.035,165.408 C86.07,166.417 86.097,169.454 86.097,169.454 C86.097,169.454 98.163,169.427 132.301,110.786 C167.249,50.756 216.017,54.255 216.017,54.255 C216.017,54.255 249.708,67.994 263.809,121.425 C277.912,174.857 290.251,166.966 290.251,166.966 C290.251,166.966 292.73,117.223 280.996,84.072" fill="#AE9684"/>
      <path d="M280.996,84.072 C268.496,48.756 235.987,18.755 221.686,24.75 C198.756,7.943 171.032,10.967 145.342,24.861 C119.653,38.755 105.592,55.138 95.352,84.072 C86.727,108.437 85.782,141.764 85.885,157.719 C85.844,162.624 86.026,165.409 86.035,165.408 C86.07,166.417 86.097,169.454 86.097,169.454 C86.097,169.454 98.163,169.427 132.301,110.786 C167.249,50.756 216.017,54.255 216.017,54.255 C216.017,54.255 249.708,67.994 263.809,121.425 C277.912,174.857 290.251,166.966 290.251,166.966 C290.251,166.966 292.73,117.223 280.996,84.072 z" fill-opacity="0" stroke="#797979" stroke-width="4" stroke-linecap="round" stroke-linejoin="round"/>
      <path d="M184.256,182.751 C184.256,182.751 182.923,188.751 188.175,188.418" fill-opacity="0" stroke="#797979" stroke-width="4" stroke-linecap="round" stroke-linejoin="round"/>
      <path d="M192.247,197.182 C191.258,196.6 190.068,196.245 188.653,196.178 C188.605,196.175 188.557,196.166 188.51,196.164 C188.393,196.16 188.288,196.17 188.174,196.17 C188.059,196.17 187.954,196.16 187.837,196.164 C187.79,196.166 187.742,196.175 187.694,196.178 C186.279,196.245 185.089,196.6 184.1,197.182 C174.868,201.777 167.325,220.605 172.337,224.236 C180.067,229.838 180.224,220.839 188.174,220.839 C196.123,220.839 196.28,229.838 204.01,224.236 C209.022,220.605 201.479,201.777 192.247,197.182" fill="#F4ACA6"/>
      <path d="M192.247,197.182 C191.258,196.6 190.068,196.245 188.653,196.178 C188.605,196.175 188.557,196.166 188.51,196.164 C188.393,196.16 188.288,196.17 188.174,196.17 C188.059,196.17 187.954,196.16 187.837,196.164 C187.79,196.166 187.742,196.175 187.694,196.178 C186.279,196.245 185.089,196.6 184.1,197.182 C174.868,201.777 167.325,220.605 172.337,224.236 C180.067,229.838 180.224,220.839 188.174,220.839 C196.123,220.839 196.28,229.838 204.01,224.236 C209.022,220.605 201.479,201.777 192.247,197.182 z" fill-opacity="0" stroke="#797979" stroke-width="4" stroke-linecap="round" stroke-linejoin="round"/>
      <path d="M230.087,149.5 C230.087,157.127 227.55,163.309 224.419,163.309 C221.288,163.309 218.751,157.127 218.751,149.5 C218.751,141.873 221.288,135.691 224.419,135.691 C227.55,135.691 230.087,141.873 230.087,149.5" fill="#797979"/>
      <path d="M143.853,156.861 C143.853,156.861 154.369,156.412 159.236,149.449 C153.353,150.299 142.853,146.443 142.853,146.443" fill-opacity="0" stroke="#797979" stroke-width="4" stroke-linecap="round" stroke-linejoin="round"/>
      <path d="M128.558,177.945 C128.558,177.945 125.712,193.931 130.279,201.018 C134.263,207.201 140.625,205.175 139.941,197.311 C139.599,193.377 137.981,191.067 137.981,191.067" fill="#B4E2EB"/>
      <path d="M128.558,177.945 C128.558,177.945 125.712,193.931 130.279,201.018 C134.263,207.201 140.625,205.175 139.941,197.311 C139.599,193.377 137.981,191.067 137.981,191.067" fill-opacity="0" stroke="#797979" stroke-width="4" stroke-linecap="round" stroke-linejoin="round"/>
      <path d="M256.59,161.476 C256.59,161.476 247.71,175.07 249.136,183.38 C250.382,190.629 257.028,191.257 259.478,183.753 C260.705,179.999 260.121,177.24 260.121,177.24" fill="#B4E2EB"/>
      <path d="M256.59,161.476 C256.59,161.476 247.71,175.07 249.136,183.38 C250.382,190.629 257.028,191.257 259.478,183.753 C260.705,179.999 260.121,177.24 260.121,177.24" fill-opacity="0" stroke="#797979" stroke-width="4" stroke-linecap="round" stroke-linejoin="round"/>
      <path d="M141.563,112.595 C141.563,112.595 154.73,110.66 160.563,104.595" fill-opacity="0" stroke="#797979" stroke-width="4" stroke-linecap="round" stroke-linejoin="round"/>
      <path d="M234.784,112.595 C234.784,112.595 221.617,110.66 215.784,104.595" fill-opacity="0" stroke="#797979" stroke-width="4" stroke-linecap="round" stroke-linejoin="round"/>
      <path d="M81.104,277.428 L78.965,275.218 C76.846,273.826 74.733,271.682 73.702,268.583 C72.548,265.114 73.074,264.81 73.05,262.272 C72.913,248.088 80.609,239.903 86.85,229.621 C93.096,219.336 106.084,210.068 116.461,217.249 C123.637,222.214 119.075,232.527 113.747,239.788 C108.419,247.055 105.549,252.186 105.549,252.186 C105.549,252.186 102.736,262.772 97.749,270.009 L102.448,273.833" fill="#FFEFD9"/>
      <path d="M81.104,277.428 L78.965,275.218 C76.846,273.826 74.733,271.682 73.702,268.583 C72.548,265.114 73.074,264.81 73.05,262.272 C72.913,248.088 80.609,239.903 86.85,229.621 C93.096,219.336 106.084,210.068 116.461,217.249 C123.637,222.214 119.075,232.527 113.747,239.788 C108.419,247.055 105.549,252.186 105.549,252.186 C105.549,252.186 102.736,262.772 97.749,270.009 L102.448,273.833" fill-opacity="0" stroke="#797979" stroke-width="4" stroke-linecap="round" stroke-linejoin="round"/>
      <path d="M119.674,228.152 C119.674,228.152 114.667,227.638 109.388,230.833 C104.113,234.027 99.481,239.725 99.481,239.725" fill="#FFEFD9"/>
      <path d="M119.674,228.152 C119.674,228.152 114.667,227.638 109.388,230.833 C104.113,234.027 99.481,239.725 99.481,239.725" fill-opacity="0" stroke="#797979" stroke-width="4" stroke-linecap="round" stroke-linejoin="round"/>
      <path d="M118.065,218.664 C118.065,218.664 111.086,217.032 104.697,221.84 C99.238,225.949 97.571,227.226 97.571,227.226" fill="#FFEFD9"/>
      <path d="M118.065,218.664 C118.065,218.664 111.086,217.032 104.697,221.84 C99.238,225.949 97.571,227.226 97.571,227.226" fill-opacity="0" stroke="#797979" stroke-width="4" stroke-linecap="round" stroke-linejoin="round"/>
      <path d="M257.654,258.021 C255.267,254.439 251.447,251.574 251.447,250.737 L251.447,245.349 L236.523,245.349 L236.523,250.737 C236.523,251.574 232.703,254.439 230.314,258.021 C227.927,261.602 224.943,265.78 224.943,271.273 L224.943,341.232 C224.943,349.11 228.885,354.561 231.751,354.561 C234.616,354.561 235.926,351.259 235.926,351.259 L238.077,351.38 C238.077,351.38 238.313,353.289 238.792,354.483 C239.27,355.676 240.822,357.109 242.134,357.109 L245.835,357.109 C247.148,357.109 248.7,355.676 249.178,354.483 C249.656,353.289 249.893,351.38 249.893,351.38 L252.044,351.259 C252.044,351.259 253.353,354.561 256.219,354.561 C259.083,354.561 263.027,349.11 263.027,341.232 L263.027,271.273 C263.027,265.78 260.042,261.602 257.654,258.021" fill="#EBFCFF"/>
      <path d="M257.654,258.021 C255.267,254.439 251.447,251.574 251.447,250.737 L251.447,245.349 L236.523,245.349 L236.523,250.737 C236.523,251.574 232.703,254.439 230.314,258.021 C227.927,261.602 224.943,265.78 224.943,271.273 L224.943,341.232 C224.943,349.11 228.885,354.561 231.751,354.561 C234.616,354.561 235.926,351.259 235.926,351.259 L238.077,351.38 C238.077,351.38 238.313,353.289 238.792,354.483 C239.27,355.676 240.822,357.109 242.134,357.109 L245.835,357.109 C247.148,357.109 248.7,355.676 249.178,354.483 C249.656,353.289 249.893,351.38 249.893,351.38 L252.044,351.259 C252.044,351.259 253.353,354.561 256.219,354.561 C259.083,354.561 263.027,349.11 263.027,341.232 L263.027,271.273 C263.027,265.78 260.042,261.602 257.654,258.021 z" fill-opacity="0" stroke="#797979" stroke-width="4" stroke-linecap="round" stroke-linejoin="round"/>
      <path d="M244.042,242.096 C243.013,242.096 234.006,242.161 234.006,244.443 C234.006,246.724 243.013,246.79 244.042,246.79 C245.068,246.79 254.077,246.724 254.077,244.443 C254.077,242.161 245.068,242.096 244.042,242.096" fill="#FFFFFF"/>
      <path d="M244.042,242.096 C243.013,242.096 234.006,242.161 234.006,244.443 C234.006,246.724 243.013,246.79 244.042,246.79 C245.068,246.79 254.077,246.724 254.077,244.443 C254.077,242.161 245.068,242.096 244.042,242.096 z" fill-opacity="0" stroke="#797979" stroke-width="4" stroke-linecap="round" stroke-linejoin="round"/>
      <path d="M252.562,236.85 C252.562,236.484 252.352,236.177 252.003,235.92 C251.565,234.028 244.831,233.972 244.042,233.972 C243.25,233.972 236.516,234.028 236.079,235.92 C235.729,236.177 235.517,236.484 235.517,236.85 L235.517,237.618 C235.517,237.895 235.637,238.137 235.846,238.352 C235.637,238.566 235.517,238.809 235.517,239.087 L235.517,239.855 C235.517,240.236 235.755,240.55 236.132,240.815 C236.12,240.842 236.121,240.875 236.111,240.905 C235.749,241.167 235.517,241.475 235.517,241.848 L235.517,244.216 C235.517,246.441 243.169,246.505 244.042,246.505 C244.914,246.505 252.562,246.441 252.562,244.216 L252.562,241.848 C252.562,241.475 252.333,241.167 251.969,240.905 C251.961,240.875 251.961,240.842 251.95,240.815 C252.326,240.55 252.562,240.237 252.562,239.855 L252.562,239.087 C252.562,238.809 252.444,238.566 252.233,238.352 C252.444,238.137 252.562,237.895 252.562,237.618 z" fill="#EBFCFF"/>
      <path d="M252.562,236.85 C252.562,236.484 252.352,236.177 252.003,235.92 C251.565,234.028 244.831,233.972 244.042,233.972 C243.25,233.972 236.516,234.028 236.079,235.92 C235.729,236.177 235.517,236.484 235.517,236.85 L235.517,237.618 C235.517,237.895 235.637,238.137 235.846,238.352 C235.637,238.566 235.517,238.809 235.517,239.087 L235.517,239.855 C235.517,240.236 235.755,240.55 236.132,240.815 C236.12,240.842 236.121,240.875 236.111,240.905 C235.749,241.167 235.517,241.475 235.517,241.848 L235.517,244.216 C235.517,246.441 243.169,246.505 244.042,246.505 C244.914,246.505 252.562,246.441 252.562,244.216 L252.562,241.848 C252.562,241.475 252.333,241.167 251.969,240.905 C251.961,240.875 251.961,240.842 251.95,240.815 C252.326,240.55 252.562,240.237 252.562,239.855 L252.562,239.087 C252.562,238.809 252.444,238.566 252.233,238.352 C252.444,238.137 252.562,237.895 252.562,237.618 L252.562,236.85 z" fill-opacity="0" stroke="#797979" stroke-width="4" stroke-linecap="round" stroke-linejoin="round"/>
      <path d="M244.011,273.472 C242.063,273.472 224.97,273.349 224.97,269.019 L224.97,302.713 C224.97,307.042 242.063,307.166 244.011,307.166 C245.963,307.166 263.054,307.042 263.054,302.713 L263.054,269.019 C263.054,273.349 245.963,273.472 244.011,273.472" fill="#ADDAFF"/>
      <path d="M244.011,273.472 C242.063,273.472 224.97,273.349 224.97,269.019 L224.97,302.713 C224.97,307.042 242.063,307.166 244.011,307.166 C245.963,307.166 263.054,307.042 263.054,302.713 L263.054,269.019 C263.054,273.349 245.963,273.472 244.011,273.472 z" fill-opacity="0" stroke="#797979" stroke-width="4" stroke-linecap="round" stroke-linejoin="round"/>
      <path d="M268.731,330.642 C268.731,330.642 287.973,333.529 289.898,307.579 C291.821,281.63 273.888,271.725 264.832,276.588 C258.241,280.126 255.282,304.291 264.21,316.841 C264.21,316.841 259.469,327.583 268.731,330.642" fill="#FFEFD9"/>
      <path d="M268.731,330.642 C268.731,330.642 287.973,333.529 289.898,307.579 C291.821,281.63 273.888,271.725 264.832,276.588 C258.241,280.126 255.282,304.291 264.21,316.841 C264.21,316.841 259.469,327.583 268.731,330.642 z" fill-opacity="0" stroke="#797979" stroke-width="4" stroke-linecap="round" stroke-linejoin="round"/>
      <path d="M273.016,301.023 C273.016,301.023 269.36,298.566 265.301,299.816 C258.628,301.869 265.301,299.816 265.301,299.816" fill="#8D96A5"/>
      <path d="M273.016,301.023 C273.016,301.023 269.36,298.566 265.301,299.816 C258.628,301.869 265.301,299.816 265.301,299.816" fill-opacity="0" stroke="#797979" stroke-width="4" stroke-linecap="round" stroke-linejoin="round"/>
      <path d="M276.372,290.841 C276.372,290.841 273.423,286.284 265.97,286.933 C254.371,287.944 265.97,286.933 265.97,286.933" fill="#8D96A5"/>
      <path d="M276.372,290.841 C276.372,290.841 273.423,286.284 265.97,286.933 C254.371,287.944 265.97,286.933 265.97,286.933" fill-opacity="0" stroke="#797979" stroke-width="4" stroke-linecap="round" stroke-linejoin="round"/>
      <path d="M70.314,235.101 C70.314,235.101 59.539,241.239 58.295,253.827" fill-opacity="0" stroke="#797979" stroke-width="4" stroke-linecap="round" stroke-linejoin="round"/>
      <path d="M70.276,220.481 C62.96,223.783 49.192,236.616 47.87,254.28" fill-opacity="0" stroke="#797979" stroke-width="4" stroke-linecap="round" stroke-linejoin="round"/>
      <path d="M28.573,89.086 C18.767,100.904 20.136,122.289 32.429,132.324 C44.722,142.358 55.625,145.689 52.529,160.312 C49.432,174.933 55.439,179.281 61.447,183.629" fill-opacity="0" stroke="#F9AFA2" stroke-width="6" stroke-linecap="round" stroke-linejoin="round"/>
      <path d="M10.735,145.908 C10.583,155.026 12.945,166.421 25.244,171.559 C37.543,176.699 36.689,187.362 35.003,194.003 C33.315,200.644 37.781,207.408 44.629,210.881" fill-opacity="0" stroke="#F9AFA2" stroke-width="6" stroke-linecap="round" stroke-linejoin="round"/>
      <path d="M344.939,89.086 C354.745,100.904 353.376,122.289 341.083,132.324 C328.79,142.358 317.887,145.689 320.983,160.312 C324.08,174.933 318.073,179.281 312.065,183.629" fill-opacity="0" stroke="#F9AFA2" stroke-width="6" stroke-linecap="round" stroke-linejoin="round"/>
      <path d="M362.777,145.908 C362.929,155.026 360.567,166.421 348.268,171.559 C335.969,176.699 336.823,187.362 338.509,194.003 C340.197,200.644 335.731,207.408 328.883,210.881" fill-opacity="0" stroke="#F9AFA2" stroke-width="6" stroke-linecap="round" stroke-linejoin="round"/>
    </g>
  </g>
</svg>
